<svg version="1.1" id="Camada_1" xmlns="http://www.w3.org/2000/svg" x="0" y="0" viewBox="0 0 1000 857.1" style="enable-background:new 0 0 1000 857.1" xml:space="preserve"><style>.st0{fill:#002c63}</style><path class="st0" d="M432.2 615.9h-131V506.7h131c29.9 0 54 24.1 54 54s-24.1 55.2-54 55.2zM301.1 309.1h119.5c29.9 0 54 24.1 54 54s-24.1 54-54 54H301.1v-108zm257.5 141.3c18.4-24.1 29.9-54 29.9-87.3 0-79.3-64.4-143.6-143.7-143.6H181.6V704.3h286.2c79.3 0 143.7-64.3 143.7-143.6 0-44.8-20.7-83.9-52.9-110.3zM1000 132.1c0 17.2-6.9 32.2-20.7 43.7-13.8 11.5-31 17.2-51.7 17.2-19.5 0-36.8-5.7-50.6-16.1-13.8-10.3-21.8-24.1-24.1-42.5h54c4.6 10.3 11.5 16.1 21.8 16.1 6.9 0 11.5-1.1 16.1-4.6 4.6-3.4 5.7-8 5.7-13.8 0-5.7-2.3-9.2-5.7-12.6-4.6-3.4-9.2-4.6-17.2-4.6h-18.4V77h17.2c6.9 0 12.6-1.1 16.1-4.6 3.4-3.4 5.7-6.9 5.7-11.5 0-5.7-2.3-10.3-5.7-13.8-3.4-3.4-9.2-4.6-14.9-4.6-6.9 0-11.5 2.3-16.1 6.9-2.3 2.3-4.6 5.7-5.7 10.3h-50.6c3.4-18.4 10.3-33.3 24.1-43.7C892 5.7 908 0 927.6 0c20.7 0 36.8 5.7 50.6 16.1 12.6 11.5 19.5 25.3 19.5 42.5 0 16.1-6.9 27.6-19.5 35.6 14.9 8.1 21.8 21.8 21.8 37.9z"/><path class="st0" d="M182.8 126.4V66.6H0v790.5h182.8v-58.6h-123V126.4h123zM608 798.5v58.6h182.8V66.6H608v59.7h124.1v672.2H608z"/></svg>